<svg width="1040" height="242" viewBox="0 0 1040 242" fill="none" xmlns="http://www.w3.org/2000/svg">
<path fill-rule="evenodd" clip-rule="evenodd" d="M1040 161.765L997 147.529C953 134.588 867 107.412 780 121.647C693 134.588 607 188.941 520 195.412C433 201.882 347 161.765 260 161.765C173 161.765 87 201.882 43 222.588L0 242L2.11563e-05 -9.61895e-06L43 -5.85977e-06C87 -2.01317e-06 173 5.50519e-06 260 1.3111e-05C347 2.07168e-05 433 2.82351e-05 520 3.58409e-05C607 4.34467e-05 693 5.0965e-05 780 5.85708e-05C867 6.61766e-05 953 7.3695e-05 997 7.75416e-05L1040 8.13007e-05L1040 161.765Z" fill="#5D5D5A"/>
</svg>
